<svg width="21" height="23" fill="none" xmlns="http://www.w3.org/2000/svg"><path d="M9 9.125v-4a1 1 0 011-1h4a1 1 0 011 1v4a1 1 0 001 1h4a1 1 0 011 1v4a1 1 0 01-1 1h-4a1 1 0 00-1 1v4a1 1 0 01-1 1h-4a1 1 0 01-1-1v-4a1 1 0 00-1-1H4a1 1 0 01-1-1v-4a1 1 0 011-1h4a1 1 0 001-1z" fill="#E6E6F8"/><path d="M7 6.875v-4a1 1 0 011-1h4a1 1 0 011 1v4a1 1 0 001 1h4a1 1 0 011 1v4a1 1 0 01-1 1h-4a1 1 0 00-1 1v4a1 1 0 01-1 1H8a1 1 0 01-1-1v-4a1 1 0 00-1-1H2a1 1 0 01-1-1v-4a1 1 0 011-1h4a1 1 0 001-1z" stroke="#5A58CF" stroke-width="2" stroke-linejoin="round"/></svg>