<svg width="25" height="23" fill="none" xmlns="http://www.w3.org/2000/svg"><path d="M22.288 3.415H6.018a2.759 2.759 0 00-1.853.8c-.5.493-.807 1.16-.86 1.873v9.292c.007.74.295 1.449.802 1.973.507.523 1.193.82 1.91.827h6.533l5.547 4.71v-4.71h4.191a2.694 2.694 0 001.911-.827A2.872 2.872 0 0025 15.38V6.215a2.872 2.872 0 00-.801-1.973 2.693 2.693 0 00-1.91-.827z" fill="#FEEFEF"/><path d="M19.983 1.11l.007-.768h-.007v.768zm-16.271 0V.342h-.024l.024.768zM1 3.783l-.766-.056-.002.028v.028H1zm0 9.292H.231v.006L1 13.075zm2.712 2.8l-.007.769h.007v-.769zm6.533 0l.497-.585-.215-.183h-.282v.768zm5.547 4.71l-.498.586a.769.769 0 001.266-.586h-.768zm0-4.71v-.768h-.769v.768h.769zm4.19 0v.769h.008l-.007-.769zm2.713-2.8l.768.006v-.006h-.768zm0-9.164h.768v-.007l-.768.007zM19.983.342H3.712v1.537h16.27V.342zm-16.295 0a3.527 3.527 0 00-2.368 1.02l1.079 1.095a1.99 1.99 0 011.336-.578L3.688.342zM1.32 1.362A3.702 3.702 0 00.234 3.728l1.532.113c.04-.53.267-1.022.633-1.383L1.32 1.363zM.232 3.784v9.292h1.536V3.783H.232zm0 9.298a3.64 3.64 0 001.017 2.502l1.104-1.07a2.103 2.103 0 01-.585-1.444l-1.536.012zm1.017 2.502a3.462 3.462 0 002.456 1.06l.014-1.536a1.925 1.925 0 01-1.366-.594l-1.104 1.07zm2.463 1.06h6.533v-1.536H3.712v1.537zm6.035-.182l5.547 4.71.995-1.172-5.547-4.71-.995 1.172zm6.813 4.124v-4.71h-1.537v4.71h1.537zm-.768-3.941h4.19v-1.537h-4.19v1.537zm4.198 0a3.462 3.462 0 002.456-1.061l-1.105-1.07a1.925 1.925 0 01-1.365.594l.014 1.537zm2.456-1.061a3.64 3.64 0 001.017-2.502l-1.537-.012a2.103 2.103 0 01-.585 1.444l1.104 1.07zm1.017-2.508V3.91h-1.537v9.164h1.537zm0-9.17a3.64 3.64 0 00-1.018-2.502l-1.104 1.07a2.1 2.1 0 01.585 1.444l1.537-.013zm-1.018-2.502A3.462 3.462 0 0019.99.342l-.014 1.537c.508.005.998.215 1.365.593l1.104-1.069z" fill="#CF6D58"/><path d="M14.153 14.999s3.205-2.164 3.944-3.564c.74-1.273.863-3.055-.74-3.946a2.314 2.314 0 00-1.941-.137c-.315.12-.601.308-.84.551a2.455 2.455 0 00-.546.86 2.541 2.541 0 00-.566-.833 2.448 2.448 0 00-.836-.537 2.388 2.388 0 00-1.927.096c-1.479.891-1.356 2.673-.74 3.946.987 1.4 4.192 3.564 4.192 3.564z" fill="#FEEFEF"/><path d="M11.848 12.693l-.43.637.43.29.43-.29-.43-.637zm3.944-3.564l-.664-.386-.008.014-.007.013.679.36zm-.74-3.945l.374-.672h-.002l-.371.672zm-3.328 1.272l-.708.298a.769.769 0 001.428-.028l-.72-.27zM8.396 5.184l-.344-.688-.027.014L8 4.525l.396.659zm-.74 3.945l-.691.335.027.057.036.05.629-.442zm4.192 3.564l.43.637.003-.002.008-.005.029-.02a19.706 19.706 0 00.491-.346c.32-.23.754-.553 1.214-.921.458-.367.95-.787 1.38-1.213.42-.414.827-.878 1.068-1.335l-1.358-.718c-.13.244-.4.575-.79.96a16.63 16.63 0 01-1.261 1.106 28.778 28.778 0 01-1.612 1.198l-.025.017-.006.004-.001.001.43.637zm4.608-3.178c.431-.741.707-1.668.609-2.584-.103-.952-.61-1.846-1.639-2.419l-.747 1.343c.572.319.806.76.857 1.24.056.517-.1 1.117-.408 1.648l1.328.772zm-1.031-5.004a3.082 3.082 0 00-1.275-.378l-.108 1.533c.222.016.44.08.639.19l.744-1.345zm-1.275-.378a3.07 3.07 0 00-1.314.195l.55 1.436c.21-.08.433-.114.656-.098l.108-1.533zm-1.314.195a3.13 3.13 0 00-1.113.73l1.096 1.078c.163-.165.356-.292.566-.372l-.549-1.436zm-1.113.73c-.316.321-.56.706-.718 1.129l1.439.54c.084-.224.212-.425.375-.59l-1.096-1.078zm.71 1.1a3.31 3.31 0 00-.737-1.084l-1.074 1.1c.167.162.301.36.394.58l1.417-.595zm-.737-1.084a3.217 3.217 0 00-1.098-.705l-.55 1.436c.212.08.408.206.574.369l1.074-1.1zm-1.098-.705a3.157 3.157 0 00-1.286-.204L9.389 5.7a1.62 1.62 0 01.66.105l.549-1.436zm-1.286-.204a3.165 3.165 0 00-1.26.331l.688 1.375c.204-.102.424-.16.649-.171l-.077-1.535zM8 4.525c-.973.586-1.424 1.485-1.523 2.406-.097.893.134 1.802.488 2.533l1.383-.67c-.262-.54-.401-1.16-.343-1.698.055-.511.281-.95.788-1.254L8 4.525zm-.972 5.047c.57.808 1.709 1.763 2.623 2.472a38.553 38.553 0 001.756 1.279l.008.005a.031.031 0 01.003.002l.43-.637.43-.637h-.002l-.006-.005-.025-.017a36.825 36.825 0 01-1.652-1.205c-.935-.724-1.891-1.55-2.308-2.142l-1.257.885z" fill="#CF6D58"/></svg>