<svg width="11" height="11" fill="none" xmlns="http://www.w3.org/2000/svg"><path d="M11 5.5a5.5 5.5 0 10-11 0 5.5 5.5 0 0011 0zm-5.5 4.522A4.522 4.522 0 115.5.98a4.522 4.522 0 010 9.043z" fill="#10100E" fill-opacity=".3"/><path d="M5.5 3.398a.487.487 0 100-.974.487.487 0 000 .974zm.861 4.454c-.168-.054-.374-.212-.374-.663V4.225a.08.08 0 00-.08-.08H4.726a.301.301 0 00-.086.59c.168.053.374.211.374.663v1.79c0 .452-.206.61-.374.664a.301.301 0 00.086.59h1.55a.301.301 0 00.085-.59z" fill="#10100E" fill-opacity=".3"/></svg>