<svg width="26" height="24" fill="none" xmlns="http://www.w3.org/2000/svg"><path d="M24.09 3.212c-1.973-1.973-5.118-2.025-7.027-.116L5.398 14.76c-1.909 1.91-1.857 5.054.117 7.028 1.974 1.973 5.119 2.025 7.028.116L24.206 10.24c1.929-1.89 1.857-5.054-.117-7.028z" fill="#FDF4DB"/><path d="M24.09 3.212c-1.973-1.973-5.118-2.025-7.027-.116L13.607 6.55c-1.909 1.91-1.856 5.054.117 7.028 1.973 1.973 5.118 2.025 7.027.116l3.456-3.455c1.929-1.89 1.857-5.054-.117-7.028z" fill="#FDF4DB"/><path d="M22.917 4.979c.927.927 1.492 2.179.002 3.668l-.002-3.668z" fill="#FDF4DB"/><path d="M21.09 2.212C19.117.24 15.972.187 14.063 2.096L2.398 13.76c-1.909 1.91-1.857 5.054.117 7.028 1.974 1.973 5.118 2.025 7.028.116L21.207 9.24c1.929-1.89 1.857-5.054-.117-7.028z" stroke="#ECC75C" stroke-width="1.35" stroke-miterlimit="10" stroke-linejoin="round"/><path d="M21.09 2.212C19.117.24 15.972.187 14.063 2.096L10.607 5.55c-1.909 1.91-1.857 5.054.117 7.028 1.973 1.973 5.118 2.025 7.027.116l3.456-3.455c1.929-1.89 1.857-5.054-.117-7.028z" stroke="#ECC75C" stroke-width="1.35" stroke-miterlimit="10" stroke-linejoin="round"/><path d="M19.917 3.979c.927.927 1.492 2.179.002 3.668" stroke="#ECC75C" stroke-width="1.35" stroke-miterlimit="10" stroke-linecap="round" stroke-linejoin="round"/></svg>