<svg width="25" height="29" fill="none" xmlns="http://www.w3.org/2000/svg"><path d="M19.096 12.629s-.477-1.82-.969-2.313c-.493-.494-1.6-.494-1.6-.494s-3.326-.124-4.68-1.482c-1.355-1.359-.493-2.47-.123-3.706.37-1.111-.739-.864-.739-.864-2.832.617-5.541 3.705-5.541 3.705l-1.108.37c-1.109.742-1.232 1.236-.986 2.594.247 1.359 2.34 3.212 2.34 3.212l13.053 12.474s3.201 3.706 5.048 1.853c0 0 .74-.618.37-1.359-.37-.74-3.94-8.769-3.94-8.769" fill="#E2EEFF"/><path d="M19.02 12.605s.123-2.346-.247-3.829c0 0 0-.494-.861-.247-.74.247-1.601.865-2.094 1.359m8.374 16.92s-.986 1.605-1.847.864c-.862-.74-5.172-4.57-7.02-7.04-1.846-2.47-3.94-5.188-5.664-7.287-1.724-2.1-3.94-4.94-4.063-5.929" fill="#E2EEFF"/><path d="M9.046 12.727s.985-1.605.37-3.335c-.616-1.729-1.11-3.21-1.11-4.322" fill="#E2EEFF"/><path d="M11.338 16.1s4.053.124 5.653 0c1.601-.246 1.232-1.358 1.232-1.358l-.079-.469-1.292-3.887s-.476-1.82-.969-2.313c-.492-.494-1.6-.494-1.6-.494s-3.325-.124-4.68-1.483c-1.354-1.358-.493-2.47-.123-3.705.37-1.112-.739-.865-.739-.865C5.91 2.144 3.2 5.232 3.2 5.232l-1.108.37C.983 6.343.86 6.837 1.107 8.196c.246 1.359 2.34 3.211 2.34 3.211l13.052 12.475s3.201 3.705 5.048 1.853c0 0 .74-.618.37-1.359-.37-.74-3.94-8.77-3.94-8.77" stroke="#408BFC" stroke-width="1.2" stroke-miterlimit="10"/><path d="M16.776 10.361s.123-2.347-.246-3.829c0 0 0-.494-.862-.247-.74.247-1.601.865-2.094 1.359m8.374 16.92s-.985 1.606-1.847.865c-.862-.741-5.172-4.57-7.02-7.04-1.846-2.47-3.94-5.188-5.664-7.287-1.723-2.1-3.94-4.94-4.063-5.929" stroke="#408BFC" stroke-width="1.2" stroke-miterlimit="10"/><path d="M6.802 10.484s.985-1.606.37-3.335c-.617-1.729-1.11-3.211-1.11-4.323m11.52 9.949l-2.34.371m1.848-2.304l-2.34.37" stroke="#408BFC" stroke-width="1.2" stroke-miterlimit="10"/></svg>