<svg width="21" height="23" viewBox="0 0 21 23" fill="none" xmlns="http://www.w3.org/2000/svg">
<path d="M8.99993 9.12506V5.12512C8.99993 4.57284 9.44765 4.12512 9.99993 4.12512H13.9999C14.5522 4.12512 14.9999 4.57284 14.9999 5.12512V9.12506C14.9999 9.67734 15.4476 10.1251 15.9999 10.1251H19.9998C20.5521 10.1251 20.9998 10.5728 20.9998 11.1251V15.125C20.9998 15.6773 20.5521 16.125 19.9998 16.125H15.9999C15.4476 16.125 14.9999 16.5727 14.9999 17.125V21.1249C14.9999 21.6772 14.5522 22.1249 13.9999 22.1249H9.99993C9.44765 22.1249 8.99993 21.6772 8.99993 21.1249V17.125C8.99993 16.5727 8.55222 16.125 7.99993 16.125H4C3.44772 16.125 3 15.6773 3 15.125V11.1251C3 10.5728 3.44771 10.1251 4 10.1251H7.99993C8.55222 10.1251 8.99993 9.67734 8.99993 9.12506Z" fill="#E6E6F8"/>
<path d="M6.99993 6.87506V2.87512C6.99993 2.32284 7.44765 1.87512 7.99993 1.87512H11.9999C12.5522 1.87512 12.9999 2.32284 12.9999 2.87512V6.87506C12.9999 7.42734 13.4476 7.87506 13.9999 7.87506H17.9998C18.5521 7.87506 18.9998 8.32277 18.9998 8.87505V12.875C18.9998 13.4273 18.5521 13.875 17.9998 13.875H13.9999C13.4476 13.875 12.9999 14.3227 12.9999 14.875V18.8749C12.9999 19.4272 12.5522 19.8749 11.9999 19.8749H7.99993C7.44765 19.8749 6.99993 19.4272 6.99993 18.8749V14.875C6.99993 14.3227 6.55222 13.875 5.99993 13.875H2C1.44772 13.875 1 13.4273 1 12.875V8.87506C1 8.32277 1.44771 7.87506 2 7.87506H5.99993C6.55222 7.87506 6.99993 7.42734 6.99993 6.87506Z" stroke="#5A58CF" stroke-width="1.99998" stroke-linejoin="round"/>
</svg>
