<svg width="25" height="23" viewBox="0 0 25 23" fill="none" xmlns="http://www.w3.org/2000/svg">
<path d="M22.2884 3.41516H6.01747C5.32562 3.43638 4.66584 3.72115 4.16517 4.21465C3.6645 4.70814 3.35834 5.37545 3.30566 6.08809V15.3796C3.31187 16.1203 3.59957 16.8289 4.10678 17.3527C4.614 17.8765 5.30015 18.1736 6.01747 18.1801H12.5505L18.0974 22.8896V18.1801H22.2884C23.0057 18.1736 23.6919 17.8765 24.1991 17.3527C24.7063 16.8289 24.994 16.1203 25.0002 15.3796V6.21535C24.9939 5.47471 24.7062 4.76623 24.199 4.24249C23.6918 3.71876 23.0057 3.42165 22.2884 3.41516Z" fill="#FEEFEF"/>
<path d="M19.9827 1.11047L19.9897 0.341985H19.9827V1.11047ZM3.71181 1.11047V0.341985H3.70003L3.68825 0.342346L3.71181 1.11047ZM1 3.78341L0.233603 3.72675L0.231511 3.75504V3.78341H1ZM1 13.0749H0.231484L0.231538 13.0814L1 13.0749ZM3.71181 15.8754L3.70485 16.6439H3.71181V15.8754ZM10.2448 15.8754L10.7422 15.2896L10.5271 15.1069H10.2448V15.8754ZM15.7917 20.5849L15.2943 21.1707C15.5226 21.3645 15.8427 21.4081 16.1145 21.2823C16.3862 21.1565 16.5602 20.8843 16.5602 20.5849H15.7917ZM15.7917 15.8754V15.1069H15.0232V15.8754H15.7917ZM19.9827 15.8754V16.6439L19.9897 16.6439L19.9827 15.8754ZM22.6945 13.0749L23.463 13.0814V13.0749H22.6945ZM22.6945 3.91067H23.4631L23.463 3.90414L22.6945 3.91067ZM19.9827 0.341985H3.71181V1.87896H19.9827V0.341985ZM3.68825 0.342346C2.79941 0.369604 1.9563 0.735504 1.32004 1.36265L2.39897 2.45727C2.76405 2.09742 3.24051 1.89378 3.73537 1.8786L3.68825 0.342346ZM1.32004 1.36265C0.684411 1.98916 0.299758 2.83184 0.233603 3.72675L1.7664 3.84006C1.8056 3.3097 2.03325 2.81774 2.39897 2.45727L1.32004 1.36265ZM0.231511 3.78341V13.0749H1.76849V3.78341H0.231511ZM0.231538 13.0814C0.239374 14.0159 0.602161 14.9145 1.24904 15.5826L2.35319 14.5134C1.98564 14.1338 1.77305 13.6154 1.76846 13.0685L0.231538 13.0814ZM1.24904 15.5826C1.8967 16.2514 2.77808 16.6355 3.70485 16.6439L3.71877 15.107C3.21089 15.1024 2.71996 14.8922 2.35319 14.5134L1.24904 15.5826ZM3.71181 16.6439H10.2448V15.1069H3.71181V16.6439ZM9.74747 16.4612L15.2943 21.1707L16.2891 19.999L10.7422 15.2896L9.74747 16.4612ZM16.5602 20.5849V15.8754H15.0232V20.5849H16.5602ZM15.7917 16.6439H19.9827V15.1069H15.7917V16.6439ZM19.9897 16.6439C20.9165 16.6355 21.7978 16.2514 22.4455 15.5826L21.3413 14.5134C20.9746 14.8922 20.4836 15.1024 19.9758 15.107L19.9897 16.6439ZM22.4455 15.5826C23.0924 14.9145 23.4552 14.0159 23.463 13.0814L21.9261 13.0685C21.9215 13.6154 21.7089 14.1338 21.3413 14.5134L22.4455 15.5826ZM23.463 13.0749V3.91067H21.926V13.0749H23.463ZM23.463 3.90414C23.4551 2.9697 23.0922 2.07114 22.4454 1.40319L21.3413 2.47243C21.7088 2.85195 21.9214 3.37033 21.9261 3.91719L23.463 3.90414ZM22.4454 1.40319C21.7977 0.734429 20.9164 0.350404 19.9897 0.342017L19.9758 1.87893C20.4836 1.88353 20.9745 2.09371 21.3413 2.47243L22.4454 1.40319Z" fill="#CF6D58"/>
<path d="M14.1528 14.9988C14.1528 14.9988 17.3576 12.835 18.0972 11.435C18.8368 10.1623 18.9601 8.38027 17.3577 7.48927C17.0619 7.32567 16.7359 7.22881 16.4011 7.20508C16.0664 7.18136 15.7306 7.23132 15.4159 7.35166C15.1013 7.472 14.815 7.65997 14.576 7.90313C14.337 8.14629 14.1507 8.43909 14.0295 8.76217C13.8974 8.44815 13.7052 8.16497 13.4644 7.92964C13.2236 7.69431 12.9392 7.5117 12.6283 7.39279C12.3174 7.27388 11.9865 7.22113 11.6553 7.23771C11.3241 7.25429 10.9997 7.33986 10.7014 7.48927C9.22227 8.38027 9.34545 10.1623 9.96178 11.435C10.9479 12.835 14.1528 14.9988 14.1528 14.9988Z" fill="#FEEFEF"/>
<path d="M11.8476 12.6931L11.4176 13.33L11.8476 13.6204L12.2776 13.33L11.8476 12.6931ZM15.792 9.12937L15.1276 8.74325L15.1198 8.75667L15.1125 8.77039L15.792 9.12937ZM15.0525 5.1836L15.426 4.51196L15.4245 4.51113L15.0525 5.1836ZM11.7243 6.4565L11.0159 6.75444C11.138 7.04462 11.4247 7.23101 11.7394 7.22484C12.0541 7.21867 12.3333 7.02117 12.4438 6.72644L11.7243 6.4565ZM8.39618 5.1836L8.05203 4.49648L8.02527 4.50989L7.99964 4.52533L8.39618 5.1836ZM7.65661 9.12937L6.96495 9.46431L6.99225 9.5207L7.02833 9.57192L7.65661 9.12937ZM11.8476 12.6931C12.2776 13.33 12.2777 13.33 12.2778 13.3299C12.2778 13.3299 12.2779 13.3298 12.278 13.3298C12.2782 13.3297 12.2784 13.3295 12.2787 13.3293C12.2793 13.3289 12.28 13.3284 12.2809 13.3278C12.2828 13.3265 12.2855 13.3247 12.2888 13.3225C12.2956 13.3179 12.3053 13.3112 12.3179 13.3026C12.3429 13.2855 12.3792 13.2605 12.4253 13.2285C12.5175 13.1644 12.6491 13.0719 12.8091 12.9567C13.1284 12.7267 13.5631 12.4044 14.023 12.036C14.4813 11.6688 14.9735 11.2487 15.4039 10.8234C15.8229 10.4093 16.2303 9.94491 16.4715 9.48836L15.1125 8.77039C14.9839 9.01383 14.7134 9.34491 14.3235 9.73023C13.9449 10.1044 13.4973 10.4877 13.062 10.8365C12.6282 11.184 12.2155 11.4901 11.9108 11.7096C11.7587 11.8191 11.6342 11.9066 11.5482 11.9663C11.5053 11.9962 11.472 12.0191 11.4497 12.0343C11.4386 12.0419 11.4303 12.0476 11.4248 12.0513C11.4221 12.0531 11.4202 12.0545 11.419 12.0553C11.4183 12.0557 11.4179 12.056 11.4177 12.0561C11.4176 12.0562 11.4175 12.0563 11.4175 12.0563C11.4175 12.0563 11.4175 12.0563 11.4175 12.0563C11.4176 12.0562 11.4176 12.0562 11.8476 12.6931ZM16.4565 9.51549C16.8875 8.77377 17.1632 7.84701 17.0646 6.93111C16.9622 5.97908 16.4559 5.08466 15.426 4.51196L14.6791 5.85524C15.2515 6.17355 15.4848 6.61562 15.5365 7.09553C15.592 7.61157 15.4362 8.2122 15.1276 8.74325L16.4565 9.51549ZM15.4245 4.51113C15.0317 4.29385 14.5973 4.16453 14.1503 4.13285L14.0416 5.66598C14.2641 5.68175 14.4818 5.74616 14.6806 5.85608L15.4245 4.51113ZM14.1503 4.13285C13.7032 4.10117 13.2552 4.16797 12.8362 4.32821L13.3853 5.76378C13.5956 5.68334 13.8192 5.65022 14.0416 5.66598L14.1503 4.13285ZM12.8362 4.32821C12.4174 4.48842 12.0381 4.73796 11.7228 5.05875L12.8189 6.13617C12.9816 5.97065 13.1749 5.84424 13.3853 5.76378L12.8362 4.32821ZM11.7228 5.05875C11.4075 5.37948 11.1633 5.76415 11.0048 6.18656L12.4438 6.72644C12.5278 6.50271 12.6561 6.30177 12.8189 6.13617L11.7228 5.05875ZM12.4327 6.15856C12.2614 5.75122 12.0113 5.38219 11.6964 5.07437L10.6221 6.17358C10.7887 6.33642 10.9231 6.53376 11.0159 6.75444L12.4327 6.15856ZM11.6964 5.07437C11.3814 4.76649 11.0078 4.52622 10.5977 4.36934L10.0486 5.80491C10.2603 5.88585 10.4556 6.0108 10.6221 6.17358L11.6964 5.07437ZM10.5977 4.36934C10.1875 4.21245 9.74992 4.14258 9.31169 4.16452L9.38855 5.69957C9.61263 5.68835 9.83705 5.72399 10.0486 5.80491L10.5977 4.36934ZM9.31169 4.16452C8.87348 4.18646 8.44495 4.29968 8.05203 4.49648L8.74034 5.87072C8.94401 5.76871 9.16446 5.71079 9.38855 5.69957L9.31169 4.16452ZM7.99964 4.52533C7.02692 5.11129 6.57568 6.00983 6.47654 6.9311C6.38046 7.82388 6.61069 8.73275 6.96495 9.46431L8.34827 8.79444C8.08619 8.25323 7.94667 7.63471 8.00469 7.09555C8.05965 6.58487 8.28636 6.14691 8.79273 5.84188L7.99964 4.52533ZM7.02833 9.57192C7.59733 10.3797 8.73654 11.3354 9.65138 12.0438C10.124 12.4098 10.5642 12.7304 10.8859 12.9593C11.047 13.074 11.179 13.166 11.271 13.2296C11.3171 13.2614 11.3532 13.2862 11.3781 13.3032C11.3905 13.3117 11.4001 13.3182 11.4068 13.3227C11.4101 13.325 11.4127 13.3267 11.4145 13.3279C11.4154 13.3285 11.4161 13.329 11.4166 13.3294C11.4169 13.3296 11.4171 13.3297 11.4173 13.3298C11.4174 13.3299 11.4174 13.3299 11.4175 13.33C11.4176 13.33 11.4176 13.33 11.8476 12.6931C12.2776 12.0562 12.2777 12.0562 12.2777 12.0562C12.2777 12.0562 12.2777 12.0563 12.2777 12.0562C12.2777 12.0562 12.2776 12.0562 12.2774 12.0561C12.2772 12.0559 12.2767 12.0556 12.2761 12.0552C12.2748 12.0543 12.2728 12.0529 12.27 12.051C12.2645 12.0473 12.256 12.0415 12.2447 12.0338C12.2221 12.0184 12.1884 11.9953 12.1449 11.9652C12.0579 11.9051 11.9317 11.8171 11.777 11.707C11.467 11.4865 11.0443 11.1786 10.5924 10.8286C9.6583 10.1052 8.702 9.279 8.28488 8.68683L7.02833 9.57192Z" fill="#CF6D58"/>
</svg>
