<svg width="11" height="11" viewBox="0 0 11 11" fill="none" xmlns="http://www.w3.org/2000/svg">
<path d="M11 5.49999C11 4.04126 10.4205 2.64238 9.38906 1.61091C8.35764 0.579487 6.95858 0 5.49999 0C4.0414 0 2.64238 0.579487 1.61091 1.61091C0.579487 2.64234 0 4.04139 0 5.49999C0 6.95858 0.579487 8.35759 1.61091 9.38906C2.64234 10.4205 4.0414 11 5.49999 11C6.46542 11 7.41389 10.7458 8.25 10.2631C9.08611 9.78039 9.78042 9.08606 10.2631 8.24997C10.7458 7.41386 11 6.46539 11 5.49997L11 5.49999ZM5.49997 10.0222C4.30059 10.0222 3.15024 9.54581 2.30232 8.69768C1.45421 7.84965 0.97778 6.69936 0.97778 5.50003C0.97778 4.3007 1.45419 3.15031 2.30232 2.30239C3.15035 1.45427 4.30064 0.977845 5.49997 0.977845C6.6993 0.977845 7.84969 1.45425 8.69761 2.30239C9.54573 3.15042 10.0222 4.3007 10.0222 5.50003C10.0208 6.69899 9.54396 7.84845 8.69617 8.69637C7.84839 9.54429 6.69888 10.021 5.49984 10.0224L5.49997 10.0222Z" fill="#10100E" fill-opacity="0.3"/>
<path d="M5.50032 3.3981C5.6294 3.3981 5.7531 3.34677 5.84442 3.25555C5.93564 3.16433 5.98688 3.04054 5.98688 2.91145C5.98688 2.78237 5.93564 2.65858 5.84442 2.56735C5.75311 2.47613 5.6294 2.4248 5.50032 2.4248C5.37123 2.4248 5.24745 2.47613 5.15622 2.56735C5.06491 2.65857 5.01367 2.78237 5.01367 2.91145C5.01367 3.04053 5.06491 3.16432 5.15622 3.25555C5.24744 3.34677 5.37123 3.3981 5.50032 3.3981Z" fill="#10100E" fill-opacity="0.3"/>
<path d="M6.36125 7.85228C6.19287 7.79831 5.98705 7.63999 5.98705 7.18857V4.22467C5.98705 4.20344 5.97853 4.18307 5.96352 4.16806C5.94852 4.15297 5.92814 4.14453 5.90683 4.14453H4.72553C4.64564 4.14453 4.569 4.17625 4.51256 4.23277C4.45603 4.28921 4.42432 4.36586 4.42432 4.44565C4.42542 4.57848 4.51264 4.69529 4.63959 4.73408C4.80797 4.78805 5.01378 4.94637 5.01378 5.39779V7.18859C5.01378 7.64003 4.80798 7.79835 4.63959 7.8523C4.51264 7.89118 4.42551 8.00789 4.42432 8.14072C4.42432 8.22061 4.45603 8.29717 4.51256 8.35369C4.569 8.41013 4.64564 8.44185 4.72553 8.44185H6.27531C6.35519 8.44185 6.43184 8.41013 6.48827 8.35369C6.54471 8.29717 6.57651 8.22061 6.57651 8.14072C6.57532 8.0079 6.48819 7.89117 6.36124 7.8523L6.36125 7.85228Z" fill="#10100E" fill-opacity="0.3"/>
</svg>
