<svg width="14" height="23" viewBox="0 0 14 23" fill="none" xmlns="http://www.w3.org/2000/svg">
<rect x="3" y="3" width="11" height="20" rx="2" fill="#D4E7DD"/>
<path d="M10.0113 0.950685V0.95H9.96128H3.03872C1.88707 0.95 0.95 1.88707 0.95 3.03872V19.0852C0.95 20.2368 1.88707 21.1739 3.03872 21.1739H9.96128C11.1129 21.1739 12.05 20.2368 12.05 19.0852V3.03919C12.05 1.90388 11.1399 0.977338 10.0113 0.950685ZM3.03872 1.85123H9.96128C10.6161 1.85123 11.1488 2.38399 11.1488 3.03872V3.5565H1.85113V3.03872C1.85113 2.38413 2.3839 1.85123 3.03862 1.85123H3.03872ZM11.1488 4.45773V17.6664H1.85118V4.45773H11.1488ZM9.96133 20.2731H3.03876C2.38399 20.2731 1.85127 19.7403 1.85127 19.0856V18.5678H11.1489V19.0856C11.1491 19.7402 10.6163 20.2731 9.96162 20.2731H9.96133Z" fill="#4F6258" stroke="#4F6258" stroke-width="0.1"/>
<path d="M7.19566 19.4245C7.19566 19.8088 6.88401 20.1205 6.49969 20.1205C6.11537 20.1205 5.80371 19.8088 5.80371 19.4245C5.80371 19.0402 6.11537 18.7285 6.49969 18.7285C6.88401 18.7285 7.19566 19.0402 7.19566 19.4245Z" fill="#4F6258"/>
</svg>
