<svg width="26" height="24" viewBox="0 0 26 24" fill="none" xmlns="http://www.w3.org/2000/svg">
<path d="M24.0903 3.21237C22.1168 1.23886 18.9718 1.18665 17.0628 3.09573L5.39834 14.7602C3.48927 16.6692 3.54146 19.8142 5.51497 21.7877C7.48853 23.7612 10.6335 23.8134 12.5425 21.9043L24.207 10.2399C26.1357 8.35052 26.0639 5.18591 24.0903 3.21237Z" fill="#FDF4DB"/>
<path d="M24.0903 3.21237C22.1167 1.23886 18.9718 1.18665 17.0627 3.09573L13.6073 6.55117C11.6983 8.46021 11.7505 11.6052 13.7239 13.5786C15.6975 15.5522 18.8424 15.6044 20.7515 13.6953L24.2069 10.2399C26.1357 8.35052 26.0638 5.18591 24.0903 3.21237Z" fill="#FDF4DB"/>
<path d="M22.9167 4.97864C23.8443 5.90622 24.4086 7.15767 22.9194 8.64678L22.9167 4.97864Z" fill="#FDF4DB"/>
<path d="M21.0903 2.21237C19.1168 0.238857 15.9718 0.186646 14.0628 2.09573L2.39834 13.7602C0.489266 15.6692 0.541464 18.8142 2.51497 20.7877C4.48853 22.7612 7.63346 22.8134 9.54251 20.9043L21.207 9.23989C23.1357 7.35052 23.0639 4.18591 21.0903 2.21237Z" stroke="#ECC75C" stroke-width="1.35" stroke-miterlimit="10" stroke-linejoin="round"/>
<path d="M21.0903 2.21237C19.1167 0.238857 15.9718 0.186646 14.0627 2.09573L10.6073 5.55117C8.69827 7.46021 8.75048 10.6052 10.7239 12.5786C12.6975 14.5522 15.8424 14.6044 17.7515 12.6953L21.2069 9.23989C23.1357 7.35052 23.0638 4.18591 21.0903 2.21237Z" stroke="#ECC75C" stroke-width="1.35" stroke-miterlimit="10" stroke-linejoin="round"/>
<path d="M19.9167 3.97864C20.8443 4.90622 21.4086 6.15767 19.9194 7.64678" stroke="#ECC75C" stroke-width="1.35" stroke-miterlimit="10" stroke-linecap="round" stroke-linejoin="round"/>
</svg>
