<svg width="25" height="29" viewBox="0 0 25 29" fill="none" xmlns="http://www.w3.org/2000/svg">
<path d="M19.0963 12.6289C19.0963 12.6289 18.6195 10.8099 18.127 10.3159C17.6344 9.82182 16.5261 9.82182 16.5261 9.82182C16.5261 9.82182 13.2015 9.69829 11.8469 8.33967C10.4924 6.98104 11.3544 5.86943 11.7238 4.63431C12.0932 3.5227 10.985 3.76972 10.985 3.76972C8.15279 4.38729 5.44377 7.47509 5.44377 7.47509L4.33552 7.84562C3.22726 8.58672 3.10416 9.08077 3.35041 10.4394C3.59671 11.798 5.69003 13.6507 5.69003 13.6507L18.7427 26.1254C18.7427 26.1254 21.9442 29.8308 23.7913 27.9781C23.7913 27.9781 24.5301 27.3605 24.1607 26.6195C23.7913 25.8784 20.2203 17.8501 20.2203 17.8501" fill="#E2EEFF"/>
<path d="M19.0198 12.6053C19.0198 12.6053 19.143 10.2586 18.7735 8.77641C18.7735 8.77641 18.7735 8.28236 17.9116 8.52936C17.1728 8.77641 16.3108 9.39399 15.8183 9.88804" fill="#E2EEFF"/>
<path d="M24.1917 26.8077C24.1917 26.8077 23.2065 28.4133 22.3446 27.6723C21.4826 26.9312 17.1728 23.1023 15.3257 20.6321C13.4787 18.1618 11.3853 15.4445 9.66139 13.3449C7.93742 11.2451 5.72096 8.40436 5.59781 7.41626" fill="#E2EEFF"/>
<path d="M9.0458 12.7273C9.0458 12.7273 10.0309 11.1217 9.41526 9.39248C8.79955 7.66333 8.307 6.18119 8.307 5.06958" fill="#E2EEFF"/>
<path d="M11.3382 16.1009C11.3382 16.1009 15.3905 16.2244 16.9913 16.1009C18.5921 15.8539 18.2227 14.7422 18.2227 14.7422L18.1443 14.2733L16.8524 10.3856C16.8524 10.3856 16.3756 8.56664 15.8831 8.07258C15.3905 7.57853 14.2823 7.57853 14.2823 7.57853C14.2823 7.57853 10.9576 7.45501 9.60302 6.09638C8.24851 4.73776 9.11047 3.62614 9.47992 2.39102C9.84932 1.27942 8.74106 1.52644 8.74106 1.52644C5.9089 2.144 3.19988 5.23181 3.19988 5.23181L2.09162 5.60233C0.983361 6.34343 0.860263 6.83748 1.10651 8.19611C1.35282 9.55474 3.44613 11.4074 3.44613 11.4074L16.4988 23.8821C16.4988 23.8821 19.7003 27.5875 21.5474 25.7348C21.5474 25.7348 22.2862 25.1173 21.9168 24.3762C21.5474 23.6351 17.9764 15.6068 17.9764 15.6068" stroke="#408BFC" stroke-width="1.2" stroke-miterlimit="10"/>
<path d="M16.776 10.361C16.776 10.361 16.8991 8.0143 16.5296 6.53215C16.5296 6.53215 16.5296 6.0381 15.6677 6.2851C14.9289 6.53215 14.0669 7.14972 13.5744 7.64377" stroke="#408BFC" stroke-width="1.2" stroke-miterlimit="10"/>
<path d="M21.9478 24.5644C21.9478 24.5644 20.9626 26.1701 20.1007 25.429C19.2387 24.6879 14.9289 20.859 13.0818 18.3888C11.2348 15.9186 9.1414 13.2013 7.41749 11.1016C5.69353 9.00185 3.47706 6.16108 3.35391 5.17297" stroke="#408BFC" stroke-width="1.2" stroke-miterlimit="10"/>
<path d="M6.80191 10.484C6.80191 10.484 7.78702 8.8784 7.17136 7.1492C6.55566 5.42005 6.0631 3.9379 6.0631 2.82629" stroke="#408BFC" stroke-width="1.2" stroke-miterlimit="10"/>
<path d="M17.5825 12.7755L15.2429 13.146" stroke="#408BFC" stroke-width="1.2" stroke-miterlimit="10"/>
<path d="M17.0898 10.8419L14.7502 11.2124" stroke="#408BFC" stroke-width="1.2" stroke-miterlimit="10"/>
</svg>
